<svg xmlns:dc="http://purl.org/dc/elements/1.1/" xmlns:cc="http://creativecommons.org/ns#" xmlns:rdf="http://www.w3.org/1999/02/22-rdf-syntax-ns#" xmlns:svg="http://www.w3.org/2000/svg" xmlns="http://www.w3.org/2000/svg" width="642.518" height="642.52" viewBox="0 0 170 170" version="1.1" id="svg8"><metadata id="metadata5"><rdf:RDF><cc:Work><dc:format>image/svg+xml</dc:format><dc:type rdf:resource="http://purl.org/dc/dcmitype/StillImage"/><dc:title/></cc:Work></rdf:RDF></metadata><g id="layer1" transform="translate(-20.000236,2.9999106)" opacity="1"><path d="M 396.84961,26.457031 A 283.46457,283.46457 0 0 0 239.98438,74.011719 94.488189,94.488189 0 0 1 277.1543,106.59766 236.22047,236.22047 0 0 1 396.84961,73.701172 236.22047,236.22047 0 0 1 633.07031,309.92188 236.22047,236.22047 0 0 1 396.84961,546.14258 236.22047,236.22047 0 0 1 160.63086,309.92188 236.22047,236.22047 0 0 1 169.04688,248.47656 94.488189,94.488189 0 0 1 127.91406,221.46289 283.46457,283.46457 0 0 0 113.38672,309.92188 283.46457,283.46457 0 0 0 396.84961,593.38672 283.46457,283.46457 0 0 0 680.31445,309.92188 283.46457,283.46457 0 0 0 396.84961,26.457031 Z" id="path3699" transform="scale(0.26458333)" fill="#2491eb" fill-opacity="1" stroke-width="1.14423633"/><circle id="path4522" cx="52.5" cy="-42" r="20" transform="scale(1,-1)" fill="#2491eb" fill-opacity="1" stroke-width="0.25245267"/><path d="M 104.99975,44.5 A 37.500108,37.500106 0 0 0 67.5,82.000242 37.500108,37.500106 0 0 0 104.99975,119.5 37.500108,37.500106 0 0 0 142.5,82.000242 37.500108,37.500106 0 0 0 104.99975,44.5 Z m 0,11.718797 A 25.781325,25.781324 0 0 1 130.7812,82.000242 25.781325,25.781324 0 0 1 104.99975,107.7812 25.781325,25.781324 0 0 1 79.218795,82.000242 25.781325,25.781324 0 0 1 104.99975,56.218797 Z" id="path4526" fill="#2491eb" fill-opacity="1" stroke-width="0.25060689"/></g></svg>